<svg width="470" height="440" xmlns="http://www.w3.org/2000/svg" xmlns:v="https://vecta.io/nano"><path fill="#0fc" d="M393.767 223.708l-40.41 39.37c-2.478 2.402-5.006 4.822-7.822 6.79-5.196 3.631-5.821 8.153-4.61 14.097 3.02 14.835 5.49 29.785 8.044 44.712l7.684 46.285c2.312 15.328 5.64 30.49 7.362 45.904.097.871 1.09 1.701-.061 2.656-1.368 1.134-2.292-.175-3.083-.63-19.214-11.037-39.042-20.916-58.612-31.282l-65.309-35.103c-3.388-1.81-6.645-2.528-10.763-.337l-68.504 35.585-55.623 29.581c-1.184.624-2.449 2.683-4.282.876-1.41-1.391-.179-2.624.061-4.025l8.223-49.191 7.826-41.749 7.139-40.929c.504-2.873 1.166-5.718 1.695-8.586.78-4.231-2.472-6.407-5.059-8.344-3.013-2.255-5.528-4.953-8.167-7.516l-52.735-51.622-37.297-36.33c-1.117-1.093-3.149-2.088-2.275-4.007.682-1.497 2.751-1.601 4.213-1.806l38.396-5.138 39.22-5.874 37.415-5.088 23.349-3.066c4.776-.685 6.539-4.224 8.484-8.302 7.645-16.027 15.842-31.791 23.741-47.699l37.001-74.752c.752-1.516.89-4.071 3.079-3.949 2.027.113 2.187 2.565 2.96 4.128l26.828 54.288 33.061 68.7c2.363 5.027 5.404 8.149 10.966 8.592 12.075.962 23.956 3.302 35.916 5.076 13.076 1.94 26.091 4.449 39.226 5.791 14.982 1.531 29.772 4.251 44.642 6.413 7.013 1.019 14.219 1.218 22.13 3.414-6.652 6.659-12.454 13.258-19.075 18.895-8.124 6.916-15.337 14.701-22.858 22.188-3.941 3.924-8.816 6.915-12.117 11.983z"/><path d="M299.161 334.998c-4.878.436-7.578-2.366-9.823-5.497-1.077-1.502-2.121-3.032-3.537-4.115-2.271-1.735-2.812-5.853-5.616-5.897-2.426-.038-4.668 2.597-7.294 3.612-7.352 2.843-14.674 5.796-21.85 9.052-3.565 1.618-6.264.493-7.51-2.415-4.264-9.947-13.003-7.792-20.7-7.855-3.481-.029-4.555 4.121-6.366 6.517-2.664 3.524-5.41 4.333-9.357 2.656l-22.405-9.205c-4.533-1.844-5.692-4.404-4.513-10.138 1.604-7.798-1.359-14.466-8.307-18.147-3.557-1.884-7.101.555-10.692.661-4.655.137-6.913-1.446-8.436-5.629-2.705-7.428-5.635-14.786-8.815-22.023-1.694-3.856-.356-6.322 2.548-8.531 1.836-1.396 3.657-2.832 5.61-4.047 2.783-1.73 4.063-3.928 3.982-7.37-.154-6.504 2.093-8.006 8.606-7.378 4.53.436 9.137.084 13.595.084.562-2.67-1.248-3.015-2.22-3.138-10.034-1.272-20.856-21.053-19.017-31.247.716-3.964 3.503-4.734 6.709-3.496 5.51 2.127 11.004 4.389 16.239 7.104 3.428 1.778 5.903 2.878 7.198-2.03.373-1.412 1.24-2.688 1.81-4.056 2.625-6.307 2.201-7.109-4.098-9.392-6.337-2.297-12.641-4.693-18.886-7.226-1.994-.809-3.813-2.232-3.939-4.694-.124-2.43 1.347-3.864 3.406-4.969 9.192-4.935 19.126-6.805 29.204-4.942 13.282 2.454 21.401 11.012 24.231 24.281.876 4.106 2.522 7.757 4.766 11.277 2.041-1.077 1.261-2.772 1.273-4.094l.062-25.998c.035-4.843 1.741-6.516 6.617-5.834 5.466.764 8.336-2.344 11.072-6.223 4.727-6.701 5.194-6.837 13.012-3.777 6.749 2.641 13.55 5.202 20.089 8.301 3.169 1.502 6.371 3.541 4.562 8.503-1.02 2.798-1.896 6.931-.57 9.031 2.602 4.122 6.376 7.894 10.493 10.507 2.081 1.321 6.184.409 8.989-.581 4.346-1.535 6.41.587 7.793 3.846 3.408 8.033 6.656 16.138 9.743 24.3 1.284 3.396.418 6.142-2.989 8.367-6.467 4.224-9.126 12.744-6.568 20.19 1.067 3.106 4.037 4.816 6.571 6.47 3.111 2.031 3.834 4.224 2.502 7.515l-9.702 24.329c-.06.15-.155.313-.281.404-6.675 4.87-1.604 8.038 1.667 11.45 1.153 1.203 2.414 2.306 3.521 3.548 4.231 4.748 8.667 9.518 5.102 16.603-3.508 6.97-8.765 11.476-17.482 11.335zM203.698 91.667l24.824-49.574c1.016-1.981.567-5.956 3.726-5.622 2.428.256 2.794 3.78 3.863 5.955l26.103 53.317c1.792 3.651-.837 6.718-1.487 9.897-3.158 15.448-7.065 30.742-10.499 46.137-.55 2.466-1.276 4.219-3.59 5.473-1.555.842-2.872 2.285-4.021 3.684-3.604 4.388-7.092 7.908-13.845 7.427-3.862-.275-6.619 3.768-6.743 8.268-.087 3.145-.017 6.294-.455 9.517-2.619-3.498-2.541-7.806-3.434-11.723l-14.559-66.467c-1.084-5.194-4.455-10.639.118-16.29zm-52.181 200.789c2.528 4.517 6.391 5.093 10.533 4.369 8.503-1.486 12.968-.103 16.379 6.735 1.497 3.002-1.169 6.738-.718 10.119 1.534 11.508-7.144 18.456-12.16 26.816-10.396 17.326-21.883 33.994-32.541 51.168-3.498 5.637-9.284 7.155-14.389 9.971-2.385 1.316-5.408 4.202-7.446 2.806-1.78-1.22.297-4.933.681-7.555 4.051-27.653 9.739-55.027 13.996-82.637.979-6.347 3.441-10.351 9.248-12.903 5.652-2.484 9.897-7.573 16.417-8.889z"/><path d="M144.618 185.442l19.665 12.887c-4.753.34-7.714 1.138-9.217 4.276-1.869 3.904.024 7.698.373 11.535.2 2.196 2.769 4.55 1.124 6.309-1.448 1.549-4.089-.233-6.13-.691l-88.229-19.89c-1.846-.414-3.511-.917-4.851-2.254l-19.086-19.093c-.659-.662-1.819-1.256-1.366-2.396.439-1.104 1.657-.826 2.633-.943 18.521-2.23 37.01-4.681 55.401-7.841 5.019-.862 10.098-1.369 15.132-2.152 3.547-.552 5.983 1.812 8.534 3.385 8.69 5.361 17.163 11.074 26.017 16.867zm164.245 13.046c-2.914-2.729-3.087-4.445.493-6.588 11.021-6.596 22.155-13.087 32.609-20.515 5.996-4.261 11.564-5.534 18.743-4.324 20.313 3.423 40.744 6.143 61.106 9.283 1.26.194 3.202.048 3.798 1.746.642 1.829-1.379 1.997-2.216 2.843-6.055 6.117-11.99 12.373-18.357 18.151-4.226 3.835-10.229 3.327-15.422 4.542-19.394 4.537-39.058 7.886-58.336 12.972-.475.125-.988.221-1.472.184-4.299-.335-8.987 4.038-12.301 1.285-2.94-2.442-3.719-7.509-5.391-11.443-1.094-2.574-2.079-5.194-3.253-8.135z" fill="#333"/><path d="M299.754 346.265c-.481-.508-.757-.721-.931-.998-3.845-6.127-3.842-6.128 2.505-7.454 11.695-2.444 18.788-10.31 18.737-20.265-.025-4.933-3.602-7.601-6.08-10.963-1.466-1.989-3.486-3.566-5.24-5.346-3-3.043-2.791-6.864.499-9.585 1.122-.928 2.036-.487 3.115.219l19.091 12.277c4.283 2.634 4.777 7.059 5.39 11.188 3.525 23.756 7.8 47.38 11.952 71.028l2.937 16.992c.153.855.322 1.778-.418 2.282-.694.473-1.54.197-2.34-.228l-16.162-8.502c-1.344-.714-2.146-1.922-2.969-3.231l-23.569-37.105-6.518-10.308zM108.292 212.641l48.885 11.25c1.303.294 2.281.494 3.232 1.762 2.747 3.662 5.849 7.058 9.481 11.347-3.148 0-5.549-.031-7.949.006-5.5.085-8.162 2.517-8.936 7.951-.288 2.021 1.035 4.521-1.134 5.994-4.154 2.82-7.275 7.299-12.755 8.035-2.446.328-5.149.222-7.262 1.268-6.298 3.118-10.08.197-14.447-4.154l-50.714-49.321c-.907-.882-1.436-2.152-2.435-3.698l44.036 9.559zm201.713 37.916c-.716-7.347-.182-13.588 7.091-17.281 3.014-1.53 3.793-4.74 2.536-7.786-1.412-3.422-.005-4.231 3.017-4.873l63.08-13.584c3.956-.841 7.784-2.626 12.051-2.045.334 2.494-2.118 2.748-3.263 3.88l-47.191 46.356c-4.593 4.535-8.71 8.911-16.324 5.921-5.705-2.24-12.24-1.99-17.822-5.057-2.082-1.144-3.415-2.577-3.175-5.531z"/><path d="M318.633 380.306l7.305 11.727-.766.659-57.987-30.184c-6.551-3.292-10.23-7.704-10.399-15.04-.034-1.463-.517-2.919-.823-4.371-2.003-9.501-2.008-9.506 6.823-13.227 5.154-2.172 10.442-4.072 15.417-6.594 2.154-1.092 2.563.223 3.541 1.169 6.372 6.172 10.241 14.121 15.021 21.402l21.87 34.459zm-181.762 10.063l31.889-50.367 8.513-13.287c1.865-2.989 3.594-4.37 7.521-2.387 6.3 3.182 13.032 5.526 19.646 8.056 3.045 1.165 4.142 3.125 3.315 6.167-1.343 4.936-2.658 9.861-3.245 14.973-.346 3.014-2.337 4.833-5.073 6.234L139.4 390.802c-1.103.907-1.836.71-2.529-.432zm70.924-216.28c-4.692-2.888-9.157-5.502-14.539-5.321-6.319.213-7.818-5.271-11.176-8.814-7.582-7.997-5.706-15.626-.914-24.154 5.763-10.255 10.672-20.992 15.927-31.532.602-1.208 1.219-2.705 2.703-2.382 1.37.298.813 1.937 1.041 3.03l9.153 43.536 6.788 33.411c-2.851-2.75-5.38-5.604-8.984-7.775z" fill="#333"/><path d="M303.691 193.104c-8.232 3.018-14.9 1.68-20.275-5.126-1.564-1.98-1.387-3.755-.974-5.976.878-4.721 1.743-9.567-2.38-13.458-1.015-.958-.957-1.81-.141-3.011 3.003-4.417 5.855-8.936 9.2-14.09 1.998 5.616 6.061 6.125 10.701 6.724 11.709 1.512 23.308 3.85 34.99 5.598 3.565.533 7.233.377 11.612 2.045l-42.734 27.294zm-157.303-32.767c6.795-.935 13.209-1.489 19.542-2.535 2.741-.453 5.902-.788 7.061-4.405.742-2.316 2.031-.959 2.776.173a401.14 401.14 0 0 1 7.145 11.257c1.551 2.54.986 3.988-2.242 4.186-5.326.327-10.309 2.107-15.123 4.243-2.866 1.272-5.706 2.825-5.559 6.791.154 4.156 2.406 6.833 5.974 8.367 6.194 2.664 12.494 5.083 18.738 7.632 1.31.535 3.461.765 3.08 2.58-.604 2.877-1.87 5.73-4.029 7.778-1.281 1.215-2.745-.397-3.915-1.148l-53.551-34.467c-2.784-1.799-6.247-2.746-8.58-6.522l28.683-3.93z"/><path fill="#333" d="M260.112 119.966l3.035-13.944c.255-1.17-.513-3.07 1.442-3.102 1.409-.023 1.927 1.548 2.508 2.787l8.314 17.369 11.3 22.601c.926 1.846 1.293 3.337-.233 5.393-2.935 3.957-5.251 8.367-7.938 12.515-1.334 2.059-3.179 3.558-5.761 2.093-5.321-3.02-11.081-5.007-16.697-7.329-3.121-1.291-4.447-2.761-3.364-6.708 2.829-10.313 4.934-20.824 7.393-31.673z"/><path d="M210.229 337.63l12.615-12.646c3.172-3.197 13.786-.956 16.528 3.044 2.627 3.833 5.31 7.241 10.546 7.025 1.476-.061 1.839.84 2.094 2.177.923 4.838 2.073 9.634 2.999 14.472.184.96 1.667 2.107.057 3.022-.974.554-1.893-.169-2.774-.636l-17.04-9.064c-3.031-1.71-5.295-1.71-8.452.342-5.098 3.313-10.798 5.711-16.307 8.364-.899.433-2.106 1.805-3.029.582-.58-.768-.513-2.27-.293-3.352.883-4.337 1.939-8.639 3.057-13.33z"/><path d="M331.592 269.93c-3.758 4.846-.64 9.455-.186 13.985.602 6.007 1.855 11.948 3.074 19.421l-22.288-14.021c-1.629-1.045-.886-2.595-.295-4.014l6.179-15.044c.484-1.206 1.14-2.555 1.006-3.76-.545-4.914 1.154-6.248 5.801-4.4 2.104.836 4.614.651 6.717 1.489 1.369.546 3.703-.45 4.085 1.898.317 1.948-1.823 2.072-2.754 3.112-.332.37-.694.714-1.338 1.335zm-186.014 7.385c1.058 4.348 5.385 8.029 3.831 11.762-1.375 3.305-6.239 4.448-9.587 6.514-3.634 2.243-7.113 4.738-11.265 7.531-.817-5.74 1.606-10.598 1.996-15.651.352-4.569 1.555-9.074 2.396-13.604.661-3.564-2.406-4.882-4.273-6.787-2.149-2.192-1.878-3.278 1.039-3.891.162-.034.335-.014.497-.048 3.063-.629 6.388-2.303 9.115-1.612 2.973.753 1.258 5.163 2.969 7.667 1.535 2.247 2.088 5.166 3.281 8.119z" fill="#333"/><path d="M136.619 390.106c.784.157 1.317.48 2.17.842-.688 1.032-1.663 2.102-3.314 1.556.298-.744.596-1.488 1.143-2.398z"/><path d="M262.231 297.729c3.748 4.432 7.36 8.518 10.699 12.816 2.393 3.081 1.343 6.67-2.237 8.132l-19.285 7.645c-2.541 1.038-4.294.911-5.708-1.83-3.134-6.078-8.202-7.305-14.98-7.905-8.094-.717-13.626.833-17.64 7.801-1.529 2.654-3.888 2.522-6.387 1.474l-17.794-7.407c-3.359-1.351-4.393-3.782-3.807-7.143.084-.481.335-.931.453-1.409 1.309-5.315.258-9.279-3.586-13.989-5.876-7.199-12.329-8.812-20.456-6.576-2.314.637-3.018-.194-3.712-1.882l-9.248-22.371c-.874-2.048.61-2.76 1.665-3.616 2.298-1.865 4.762-3.522 7.123-5.311 2.855-2.163 4.49-4.849 3.478-8.594-.736-2.722.638-3.569 3.098-3.562l23.986-.025c3.195-.041 3.959 1.872 4.075 4.416.73 16.057 8.701 27.286 23.025 34.054 8.991 4.249 18.412 4.833 27.992 2.054 1.261-.366 2.448-1.024 3.723-1.302 1.267-.276 2.962-.647 3.517.907.547 1.532-.983 2.284-2.148 2.757-18.001 7.325-39.076 1.22-50.956-13.483-5.136-6.357-7.715-13.799-8.926-21.652-.679-4.402-3.427-3.976-6.153-3.6-3.428.473-2.073 3.348-1.778 5.156 3.038 18.663 13.142 32.088 30.369 39.946 12.909 5.888 26.115 6.33 39.383 1.221 7.169-2.761 7.123-2.881 12.216 3.279zM230 183.083l-.008-4.984c-.178-2.45 1.093-3.642 3.262-3.03 7.061 1.992 10.503-2.645 13.326-7.52 2.113-3.649 4.493-3.806 7.73-2.379l18.485 8.21c2.351 1.044 3.751 2.174 2.559 5.308-.965 2.537-.382 5.543-1.255 8.279-.385 1.208.025 2.331 1.37 3.342 2.375 1.787 4.815 3.79 6.427 6.231 4.302 6.514 10.363 6.796 16.789 4.991 2.607-.732 3.381.321 4.122 2.026l8.852 20.88c.899 2.194.446 4.077-1.893 5.408-1.702.969-3.057 2.535-4.73 3.568-3.251 2.007-3.644 4.592-2.442 8.019.579 1.651.889 3.854.276 5.389-3.17 7.931.976 12.452 7.089 16.13 1.706 1.026 2.39 2.091 1.544 4.038l-8.924 20.927c-1.66 4.035-4.485 3.774-7.144 1.715-6.473-5.011-10.96-11.987-16.78-17.677-1.322-1.292-.453-3.009.204-4.634 6.433-15.919 6.444-31.865-2.236-46.772-8.476-14.557-21.266-23.715-38.524-25.516-2.567-.268-4.919-.211-5.178 3.592s2.254 3.818 4.629 4.201c19.274 3.11 33.636 16.132 37.051 34.949 1.309 7.212 1.339 14.873-1.46 22.096-.535 1.38-.589 3.366-2.65 2.683-1.708-.565-1.459-2.1-.926-3.764 3.127-9.758 2.925-19.263-1.392-28.838-5.669-12.577-15.077-20.208-28.412-22.878-9.71-1.944-9.761-1.687-9.761-11.506v-12.485zm25.745 100.114l-14.888-17.565c-5.974-6.86-12.376-13.369-18.042-20.468-5.572-6.981-13.121-9.033-21.265-10.125-5.873-.788-11.763-1.485-17.665-1.995-2.996-.259-3.176-.999-1.881-3.68 4.504-9.323 8.722-18.786 12.927-28.249 2.414-5.432 1.423-8.225-4.059-10.63-6.779-2.974-13.716-5.588-20.587-8.351-.712-.286-1.863-.032-1.932-1.132-.073-1.166.868-1.616 1.87-1.952 12.377-4.156 24.561-6.519 35.869 2.939 2.899 2.424 4.774 5.357 5.965 8.849 3.824 11.216 6.887 22.791 14.909 32.049l11.071 12.591 43.725 46.828 28.991 32.008c2.569 2.867 3.041 5.729.481 9.326-5.663 7.956-12.911 8.441-19.007 1.223-9.058-10.727-18.408-21.208-27.653-31.776l-8.83-9.888zm-90.495-63.641c-1.566-4.49-4.027-8.423-2.896-13.466 5.339 2.212 10.587 4.103 15.561 6.548 3.291 1.617 4.309 6.83 2.603 10.34-4.835 9.946-5.342 9.985-12.189.902-.99-1.313-1.937-2.657-3.079-4.324z" fill="#0fc"/><path d="M209 221.001c-1.475 4.173-3.403 6.212-7.439 3.06-1.242-.97-2.861-1.485-4.351-2.103-3.093-1.283-3.901-3.286-2.132-6.216.339-.562.618-1.161.923-1.744 5.179-9.9 2.747-9.383 13.385-4.365 3.243 1.53 4.373 3.016 2.247 6.211-.995 1.496-1.691 3.192-2.633 5.157zm89.374 100.918c-3.184-1.238-3.973-3.5-3.116-6.129.764-2.342 2.836-2.811 5.21-2.839 2.563-.03 3.558 1.544 4.172 3.464 1.032 3.227-1.288 5.352-6.266 5.505z"/><path fill="#0fc" d="M208.029 211.621c2.907 4.864-1.118 7.676-3.351 10.101-1.657 1.799-4.448-1.307-6.651-2.382-.967-.472-.78-1.455-.432-2.562 2.093-6.664 3.856-7.656 10.434-5.156z"/></svg>
